<mxfile host="Electron" agent="Mozilla/5.0 (Windows NT 10.0; Win64; x64) AppleWebKit/537.36 (KHTML, like Gecko) draw.io/24.7.17 Chrome/128.0.6613.36 Electron/32.0.1 Safari/537.36" version="24.7.17">
  <diagram name="Page-1" id="0u0qS9xit8GelhcY09GJ">
    <mxGraphModel dx="1430" dy="837" grid="1" gridSize="10" guides="1" tooltips="1" connect="1" arrows="1" fold="1" page="1" pageScale="1" pageWidth="850" pageHeight="1100" math="0" shadow="0">
      <root>
        <mxCell id="0" />
        <mxCell id="1" parent="0" />
        <mxCell id="Gu2H7t9DkZZmHhLoCJ2h-31" style="edgeStyle=orthogonalEdgeStyle;rounded=0;orthogonalLoop=1;jettySize=auto;html=1;exitX=0;exitY=0.5;exitDx=0;exitDy=0;endArrow=none;endFill=0;startArrow=classic;startFill=1;" edge="1" parent="1" source="Gu2H7t9DkZZmHhLoCJ2h-2">
          <mxGeometry relative="1" as="geometry">
            <mxPoint x="270" y="300" as="targetPoint" />
          </mxGeometry>
        </mxCell>
        <mxCell id="Gu2H7t9DkZZmHhLoCJ2h-32" value="5V" style="edgeLabel;html=1;align=center;verticalAlign=middle;resizable=0;points=[];" vertex="1" connectable="0" parent="Gu2H7t9DkZZmHhLoCJ2h-31">
          <mxGeometry x="0.0998" relative="1" as="geometry">
            <mxPoint x="3" y="-10" as="offset" />
          </mxGeometry>
        </mxCell>
        <mxCell id="Gu2H7t9DkZZmHhLoCJ2h-2" value="ILI9486 Display" style="rounded=1;whiteSpace=wrap;html=1;" vertex="1" parent="1">
          <mxGeometry x="360" y="270" width="120" height="60" as="geometry" />
        </mxCell>
        <mxCell id="Gu2H7t9DkZZmHhLoCJ2h-4" style="edgeStyle=orthogonalEdgeStyle;rounded=0;orthogonalLoop=1;jettySize=auto;html=1;entryX=0.5;entryY=1;entryDx=0;entryDy=0;endArrow=classic;endFill=1;startArrow=classic;startFill=1;" edge="1" parent="1" source="Gu2H7t9DkZZmHhLoCJ2h-3" target="Gu2H7t9DkZZmHhLoCJ2h-2">
          <mxGeometry relative="1" as="geometry" />
        </mxCell>
        <mxCell id="Gu2H7t9DkZZmHhLoCJ2h-5" value="16 bit parallel" style="edgeLabel;html=1;align=center;verticalAlign=middle;resizable=0;points=[];" vertex="1" connectable="0" parent="Gu2H7t9DkZZmHhLoCJ2h-4">
          <mxGeometry x="0.0067" y="3" relative="1" as="geometry">
            <mxPoint x="3" as="offset" />
          </mxGeometry>
        </mxCell>
        <mxCell id="Gu2H7t9DkZZmHhLoCJ2h-22" style="edgeStyle=orthogonalEdgeStyle;rounded=0;orthogonalLoop=1;jettySize=auto;html=1;exitX=0;exitY=0.25;exitDx=0;exitDy=0;startArrow=classic;startFill=1;" edge="1" parent="1" source="Gu2H7t9DkZZmHhLoCJ2h-3">
          <mxGeometry relative="1" as="geometry">
            <mxPoint x="270" y="410" as="targetPoint" />
          </mxGeometry>
        </mxCell>
        <mxCell id="Gu2H7t9DkZZmHhLoCJ2h-23" value="USB to PSU" style="edgeLabel;html=1;align=center;verticalAlign=middle;resizable=0;points=[];" vertex="1" connectable="0" parent="Gu2H7t9DkZZmHhLoCJ2h-22">
          <mxGeometry x="-0.0194" y="-3" relative="1" as="geometry">
            <mxPoint x="2" y="-9" as="offset" />
          </mxGeometry>
        </mxCell>
        <mxCell id="Gu2H7t9DkZZmHhLoCJ2h-24" style="edgeStyle=orthogonalEdgeStyle;rounded=0;orthogonalLoop=1;jettySize=auto;html=1;exitX=0;exitY=0.5;exitDx=0;exitDy=0;startArrow=classic;startFill=1;endArrow=none;endFill=0;" edge="1" parent="1" source="Gu2H7t9DkZZmHhLoCJ2h-3">
          <mxGeometry relative="1" as="geometry">
            <mxPoint x="270" y="440" as="targetPoint" />
          </mxGeometry>
        </mxCell>
        <mxCell id="Gu2H7t9DkZZmHhLoCJ2h-25" value="VBAT sense" style="edgeLabel;html=1;align=center;verticalAlign=middle;resizable=0;points=[];" vertex="1" connectable="0" parent="Gu2H7t9DkZZmHhLoCJ2h-24">
          <mxGeometry x="0.2042" y="1" relative="1" as="geometry">
            <mxPoint x="9" y="-10" as="offset" />
          </mxGeometry>
        </mxCell>
        <mxCell id="Gu2H7t9DkZZmHhLoCJ2h-27" style="edgeStyle=orthogonalEdgeStyle;rounded=0;orthogonalLoop=1;jettySize=auto;html=1;exitX=0;exitY=0.75;exitDx=0;exitDy=0;startArrow=classic;startFill=1;endArrow=none;endFill=0;" edge="1" parent="1" source="Gu2H7t9DkZZmHhLoCJ2h-3">
          <mxGeometry relative="1" as="geometry">
            <mxPoint x="270" y="470.0952380952381" as="targetPoint" />
          </mxGeometry>
        </mxCell>
        <mxCell id="Gu2H7t9DkZZmHhLoCJ2h-30" value="5V" style="edgeLabel;html=1;align=center;verticalAlign=middle;resizable=0;points=[];" vertex="1" connectable="0" parent="Gu2H7t9DkZZmHhLoCJ2h-27">
          <mxGeometry x="0.1568" y="1" relative="1" as="geometry">
            <mxPoint x="6" y="-11" as="offset" />
          </mxGeometry>
        </mxCell>
        <mxCell id="Gu2H7t9DkZZmHhLoCJ2h-28" style="edgeStyle=orthogonalEdgeStyle;rounded=0;orthogonalLoop=1;jettySize=auto;html=1;" edge="1" parent="1" source="Gu2H7t9DkZZmHhLoCJ2h-3">
          <mxGeometry relative="1" as="geometry">
            <mxPoint x="560" y="440" as="targetPoint" />
          </mxGeometry>
        </mxCell>
        <mxCell id="Gu2H7t9DkZZmHhLoCJ2h-29" value="PWM" style="edgeLabel;html=1;align=center;verticalAlign=middle;resizable=0;points=[];" vertex="1" connectable="0" parent="Gu2H7t9DkZZmHhLoCJ2h-28">
          <mxGeometry x="-0.1371" y="1" relative="1" as="geometry">
            <mxPoint y="-9" as="offset" />
          </mxGeometry>
        </mxCell>
        <mxCell id="Gu2H7t9DkZZmHhLoCJ2h-3" value="RP2350 MCU" style="rounded=1;whiteSpace=wrap;html=1;" vertex="1" parent="1">
          <mxGeometry x="360" y="380" width="120" height="120" as="geometry" />
        </mxCell>
        <mxCell id="Gu2H7t9DkZZmHhLoCJ2h-21" style="edgeStyle=orthogonalEdgeStyle;rounded=0;orthogonalLoop=1;jettySize=auto;html=1;entryX=0.25;entryY=1;entryDx=0;entryDy=0;" edge="1" parent="1" source="Gu2H7t9DkZZmHhLoCJ2h-6" target="Gu2H7t9DkZZmHhLoCJ2h-3">
          <mxGeometry relative="1" as="geometry" />
        </mxCell>
        <mxCell id="Gu2H7t9DkZZmHhLoCJ2h-6" value="Encoder&lt;div&gt;w/button&lt;/div&gt;" style="ellipse;whiteSpace=wrap;html=1;aspect=fixed;" vertex="1" parent="1">
          <mxGeometry x="320" y="550" width="60" height="60" as="geometry" />
        </mxCell>
        <mxCell id="Gu2H7t9DkZZmHhLoCJ2h-20" style="edgeStyle=orthogonalEdgeStyle;rounded=0;orthogonalLoop=1;jettySize=auto;html=1;entryX=0.5;entryY=1;entryDx=0;entryDy=0;" edge="1" parent="1" source="Gu2H7t9DkZZmHhLoCJ2h-14" target="Gu2H7t9DkZZmHhLoCJ2h-3">
          <mxGeometry relative="1" as="geometry" />
        </mxCell>
        <mxCell id="Gu2H7t9DkZZmHhLoCJ2h-14" value="Encoder&lt;div&gt;w/button&lt;/div&gt;" style="ellipse;whiteSpace=wrap;html=1;aspect=fixed;" vertex="1" parent="1">
          <mxGeometry x="390" y="550" width="60" height="60" as="geometry" />
        </mxCell>
        <mxCell id="Gu2H7t9DkZZmHhLoCJ2h-19" style="edgeStyle=orthogonalEdgeStyle;rounded=0;orthogonalLoop=1;jettySize=auto;html=1;entryX=0.75;entryY=1;entryDx=0;entryDy=0;" edge="1" parent="1" source="Gu2H7t9DkZZmHhLoCJ2h-15" target="Gu2H7t9DkZZmHhLoCJ2h-3">
          <mxGeometry relative="1" as="geometry" />
        </mxCell>
        <mxCell id="Gu2H7t9DkZZmHhLoCJ2h-15" value="Encoder&lt;div&gt;w/button&lt;/div&gt;" style="ellipse;whiteSpace=wrap;html=1;aspect=fixed;" vertex="1" parent="1">
          <mxGeometry x="460" y="550" width="60" height="60" as="geometry" />
        </mxCell>
      </root>
    </mxGraphModel>
  </diagram>
</mxfile>
